<svg width="20" height="20" viewBox="0 0 20 20" fill="none" xmlns="http://www.w3.org/2000/svg">
<g clip-path="url(#clip0_1101_206414)">
<path d="M19.9816 0.00927734H0V19.9909H19.9816V0.00927734Z" fill="#F5F5F5"/>
<path d="M20 0.00927734H0V1.546H20V0.00927734Z" fill="#FF4B55"/>
<path d="M20 6.15747H0V7.69419H20V6.15747Z" fill="#FF4B55"/>
<path d="M20 3.0835H0V4.62021H20V3.0835Z" fill="#FF4B55"/>
<path d="M20 9.23145H0V10.7682H20V9.23145Z" fill="#FF4B55"/>
<path d="M20 15.3794H0V16.9161H20V15.3794Z" fill="#FF4B55"/>
<path d="M20 18.4536H0V19.9903H20V18.4536Z" fill="#FF4B55"/>
<path d="M20 12.3057H0V13.8424H20V12.3057Z" fill="#FF4B55"/>
<path d="M10.7594 0.00927734H0V10.7687H10.7594V0.00927734Z" fill="#41479B"/>
<path d="M1.37681 0.812959L1.45971 1.06155L1.72174 1.06358C1.75564 1.06386 1.76974 1.10714 1.74244 1.12729L1.53166 1.28296L1.61068 1.5328C1.62092 1.56515 1.58412 1.5919 1.55646 1.57218L1.34326 1.41979L1.13006 1.57218C1.10248 1.59194 1.06564 1.56515 1.07584 1.5328L1.15486 1.28296L0.94408 1.12729C0.916815 1.10714 0.930838 1.06386 0.964783 1.06358L1.22681 1.06155L1.30971 0.812959C1.32056 0.780771 1.36611 0.780771 1.37681 0.812959Z" fill="#F5F5F5"/>
<path d="M1.37681 2.88672L1.45971 3.13531L1.72174 3.13734C1.75564 3.13762 1.76974 3.1809 1.74244 3.20105L1.53166 3.35672L1.61068 3.60656C1.62092 3.63891 1.58412 3.66566 1.55646 3.64594L1.34326 3.49355L1.13006 3.64594C1.10248 3.6657 1.06564 3.63891 1.07584 3.60656L1.15486 3.35672L0.94408 3.20105C0.916815 3.1809 0.930838 3.13762 0.964783 3.13734L1.22681 3.13531L1.30971 2.88672C1.32056 2.85449 1.36611 2.85449 1.37681 2.88672Z" fill="#F5F5F5"/>
<path d="M1.37681 5.18674L1.45971 5.43533L1.72174 5.43736C1.75564 5.43764 1.76974 5.48092 1.74244 5.50111L1.53166 5.65678L1.61068 5.90662C1.62092 5.93896 1.58412 5.96572 1.55646 5.946L1.34326 5.79361L1.13006 5.946C1.10248 5.96576 1.06564 5.93896 1.07584 5.90662L1.15486 5.65678L0.94408 5.50111C0.916815 5.48096 0.930838 5.43764 0.964783 5.43736L1.22681 5.43533L1.30971 5.18674C1.32056 5.15455 1.36611 5.15455 1.37681 5.18674Z" fill="#F5F5F5"/>
<path d="M1.37681 7.29978L1.45971 7.54837L1.72174 7.5504C1.75564 7.55067 1.76974 7.59395 1.74244 7.61411L1.53166 7.76978L1.61068 8.01962C1.62092 8.05196 1.58412 8.07872 1.55646 8.05899L1.34326 7.90661L1.13006 8.05899C1.10248 8.07876 1.06564 8.05196 1.07584 8.01962L1.15486 7.76978L0.94408 7.61411C0.916815 7.59395 0.930838 7.55067 0.964783 7.5504L1.22681 7.54837L1.30971 7.29978C1.32056 7.26759 1.36611 7.26759 1.37681 7.29978Z" fill="#F5F5F5"/>
<path d="M1.37681 9.22263L1.45971 9.47122L1.72174 9.47325C1.75564 9.47353 1.76974 9.51681 1.74244 9.53696L1.53166 9.69263L1.61068 9.94247C1.62092 9.97481 1.58412 10.0016 1.55646 9.98185L1.34326 9.82946L1.13006 9.98185C1.10248 10.0016 1.06564 9.97481 1.07584 9.94247L1.15486 9.69263L0.94408 9.53696C0.916815 9.51681 0.930838 9.47349 0.964783 9.47325L1.22681 9.47122L1.30971 9.22263C1.32056 9.19044 1.36611 9.19044 1.37681 9.22263Z" fill="#F5F5F5"/>
<path d="M2.38463 1.79489L2.46752 2.04349L2.72955 2.04552C2.76346 2.04579 2.77756 2.08907 2.75025 2.10923L2.53947 2.26489L2.61849 2.51474C2.62873 2.54708 2.59193 2.57384 2.56428 2.55411L2.35107 2.40173L2.13787 2.55411C2.11029 2.57388 2.07346 2.54708 2.08365 2.51474L2.16267 2.26489L1.95189 2.10923C1.92463 2.08907 1.93865 2.04579 1.9726 2.04552L2.23463 2.04349L2.31752 1.79489C2.32838 1.76271 2.37392 1.76271 2.38463 1.79489Z" fill="#F5F5F5"/>
<path d="M2.38463 4.09494L2.46752 4.34354L2.72955 4.34557C2.76346 4.34584 2.77756 4.38912 2.75025 4.40928L2.53947 4.56494L2.61849 4.81479C2.62873 4.84713 2.59193 4.87389 2.56428 4.85416L2.35107 4.70178L2.13787 4.85416C2.11029 4.87393 2.07346 4.84713 2.08365 4.81479L2.16267 4.56494L1.95189 4.40928C1.92463 4.38912 1.93865 4.34584 1.9726 4.34557L2.23463 4.34354L2.31752 4.09494C2.32838 4.06275 2.37392 4.06275 2.38463 4.09494Z" fill="#F5F5F5"/>
<path d="M2.38463 6.27997L2.46752 6.52856L2.72955 6.5306C2.76346 6.53087 2.77756 6.57415 2.75025 6.59431L2.53947 6.74997L2.61849 6.99981C2.62873 7.03216 2.59193 7.05892 2.56428 7.03919L2.35107 6.88681L2.13787 7.03919C2.11029 7.05896 2.07346 7.03216 2.08365 6.99981L2.16267 6.74997L1.95189 6.59431C1.92463 6.57415 1.93865 6.53087 1.9726 6.5306L2.23463 6.52856L2.31752 6.27997C2.32838 6.24782 2.37392 6.24782 2.38463 6.27997Z" fill="#F5F5F5"/>
<path d="M2.38463 8.24243L2.46752 8.49103L2.72955 8.49306C2.76346 8.49333 2.77756 8.53661 2.75025 8.55677L2.53947 8.71243L2.61849 8.96228C2.62873 8.99462 2.59193 9.02138 2.56428 9.00165L2.35107 8.84927L2.13787 9.00165C2.11029 9.02142 2.07346 8.99462 2.08365 8.96228L2.16267 8.71243L1.95189 8.55677C1.92463 8.53661 1.93865 8.49333 1.9726 8.49306L2.23463 8.49103L2.31752 8.24243C2.32838 8.21021 2.37392 8.21021 2.38463 8.24243Z" fill="#F5F5F5"/>
<path d="M3.39635 0.812959L3.47924 1.06155L3.74127 1.06358C3.77517 1.06386 3.78928 1.10714 3.76197 1.12729L3.55119 1.28296L3.63021 1.5328C3.64045 1.56515 3.60365 1.5919 3.57599 1.57218L3.36279 1.41979L3.14959 1.57218C3.12201 1.59194 3.08517 1.56515 3.09537 1.5328L3.17439 1.28296L2.96361 1.12729C2.93635 1.10714 2.95037 1.06386 2.98431 1.06358L3.24635 1.06155L3.32924 0.812959C3.3401 0.780771 3.3856 0.780771 3.39635 0.812959Z" fill="#F5F5F5"/>
<path d="M3.39635 2.88672L3.47924 3.13531L3.74127 3.13734C3.77517 3.13762 3.78928 3.1809 3.76197 3.20105L3.55119 3.35672L3.63021 3.60656C3.64045 3.63891 3.60365 3.66566 3.57599 3.64594L3.36279 3.49355L3.14959 3.64594C3.12201 3.6657 3.08517 3.63891 3.09537 3.60656L3.17439 3.35672L2.96361 3.20105C2.93635 3.1809 2.95037 3.13762 2.98431 3.13734L3.24635 3.13531L3.32924 2.88672C3.3401 2.85449 3.3856 2.85449 3.39635 2.88672Z" fill="#F5F5F5"/>
<path d="M3.39635 5.18674L3.47924 5.43533L3.74127 5.43736C3.77517 5.43764 3.78928 5.48092 3.76197 5.50111L3.55119 5.65678L3.63021 5.90662C3.64045 5.93896 3.60365 5.96572 3.57599 5.946L3.36279 5.79361L3.14959 5.946C3.12201 5.96576 3.08517 5.93896 3.09537 5.90662L3.17439 5.65678L2.96361 5.50111C2.93635 5.48096 2.95037 5.43764 2.98431 5.43736L3.24635 5.43533L3.32924 5.18674C3.3401 5.15455 3.3856 5.15455 3.39635 5.18674Z" fill="#F5F5F5"/>
<path d="M3.39627 7.29978L3.47916 7.54837L3.74119 7.55041C3.7751 7.55068 3.7892 7.59396 3.76189 7.61412L3.55111 7.76978L3.63014 8.01962C3.64037 8.05197 3.60357 8.07873 3.57592 8.059L3.36279 7.90658L3.14959 8.05896C3.12201 8.07873 3.08517 8.05193 3.09537 8.01958L3.17439 7.76974L2.96361 7.61408C2.93635 7.59392 2.95037 7.55064 2.98431 7.55037L3.24635 7.54833L3.32924 7.29974C3.34002 7.26759 3.38553 7.26759 3.39627 7.29978Z" fill="#F5F5F5"/>
<path d="M3.39635 9.22263L3.47924 9.47122L3.74127 9.47325C3.77517 9.47353 3.78928 9.51681 3.76197 9.53696L3.55119 9.69263L3.63021 9.94247C3.64045 9.97481 3.60365 10.0016 3.57599 9.98185L3.36279 9.82946L3.14959 9.98185C3.12201 10.0016 3.08517 9.97481 3.09537 9.94247L3.17439 9.69263L2.96361 9.53696C2.93635 9.51681 2.95037 9.47349 2.98431 9.47325L3.24635 9.47122L3.32924 9.22263C3.3401 9.19044 3.3856 9.19044 3.39635 9.22263Z" fill="#F5F5F5"/>
<path d="M4.40416 1.79489L4.48705 2.04349L4.74908 2.04552C4.78299 2.04579 4.79709 2.08907 4.76978 2.10923L4.559 2.26489L4.63803 2.51474C4.64826 2.54708 4.61146 2.57384 4.58381 2.55411L4.3706 2.40173L4.1574 2.55411C4.12982 2.57388 4.09299 2.54708 4.10318 2.51474L4.18221 2.26489L3.97142 2.10923C3.94416 2.08907 3.95818 2.04579 3.99213 2.04552L4.25428 2.04349L4.33717 1.79489C4.34791 1.76271 4.39342 1.76271 4.40416 1.79489Z" fill="#F5F5F5"/>
<path d="M4.40416 4.09494L4.48705 4.34354L4.74908 4.34557C4.78299 4.34584 4.79709 4.38912 4.76978 4.40928L4.559 4.56494L4.63803 4.81479C4.64826 4.84713 4.61146 4.87389 4.58381 4.85416L4.3706 4.70178L4.1574 4.85416C4.12982 4.87393 4.09299 4.84713 4.10318 4.81479L4.18221 4.56494L3.97142 4.40928C3.94416 4.38912 3.95818 4.34584 3.99213 4.34557L4.25416 4.34354L4.33705 4.09494C4.34791 4.06275 4.39342 4.06275 4.40416 4.09494Z" fill="#F5F5F5"/>
<path d="M4.40416 6.27997L4.48705 6.52856L4.74908 6.5306C4.78299 6.53087 4.79709 6.57415 4.76978 6.59431L4.559 6.74997L4.63803 6.99981C4.64826 7.03216 4.61146 7.05892 4.58381 7.03919L4.3706 6.88681L4.1574 7.03919C4.12982 7.05896 4.09299 7.03216 4.10318 6.99981L4.18221 6.74997L3.97142 6.59431C3.94416 6.57415 3.95818 6.53087 3.99213 6.5306L4.25416 6.52856L4.33705 6.27997C4.34791 6.24782 4.39342 6.24782 4.40416 6.27997Z" fill="#F5F5F5"/>
<path d="M4.40416 8.24243L4.48705 8.49103L4.74908 8.49306C4.78299 8.49333 4.79709 8.53661 4.76978 8.55677L4.559 8.71243L4.63803 8.96228C4.64826 8.99462 4.61146 9.02138 4.58381 9.00165L4.3706 8.84927L4.1574 9.00165C4.12982 9.02142 4.09299 8.99462 4.10318 8.96228L4.18221 8.71243L3.97142 8.55677C3.94416 8.53661 3.95818 8.49333 3.99213 8.49306L4.25416 8.49103L4.33705 8.24243C4.34791 8.21021 4.39342 8.21021 4.40416 8.24243Z" fill="#F5F5F5"/>
<path d="M5.41588 0.812959L5.49877 1.06155L5.7608 1.06358C5.79471 1.06386 5.80881 1.10714 5.7815 1.12729L5.57072 1.28296L5.64974 1.5328C5.65998 1.56515 5.62318 1.5919 5.59553 1.57218L5.38232 1.41979L5.16912 1.57218C5.14154 1.59194 5.10471 1.56515 5.1149 1.5328L5.19392 1.28296L4.98314 1.12729C4.95588 1.10714 4.9699 1.06386 5.00385 1.06358L5.26588 1.06155L5.34877 0.812959C5.35963 0.780771 5.40514 0.780771 5.41588 0.812959Z" fill="#F5F5F5"/>
<path d="M5.41588 2.88672L5.49877 3.13531L5.7608 3.13734C5.79471 3.13762 5.80881 3.1809 5.7815 3.20105L5.57072 3.35672L5.64974 3.60656C5.65998 3.63891 5.62318 3.66566 5.59553 3.64594L5.38232 3.49355L5.16912 3.64594C5.14154 3.6657 5.10471 3.63891 5.1149 3.60656L5.19392 3.35672L4.98314 3.20105C4.95588 3.1809 4.9699 3.13762 5.00385 3.13734L5.26588 3.13531L5.34877 2.88672C5.35963 2.85449 5.40514 2.85449 5.41588 2.88672Z" fill="#F5F5F5"/>
<path d="M5.41588 5.18674L5.49877 5.43533L5.7608 5.43736C5.79471 5.43764 5.80881 5.48092 5.7815 5.50111L5.57072 5.65678L5.64974 5.90662C5.65998 5.93896 5.62318 5.96572 5.59553 5.946L5.38232 5.79361L5.16912 5.946C5.14154 5.96576 5.10471 5.93896 5.1149 5.90662L5.19392 5.65678L4.98314 5.50111C4.95588 5.48096 4.9699 5.43764 5.00385 5.43736L5.26588 5.43533L5.34877 5.18674C5.35963 5.15455 5.40514 5.15455 5.41588 5.18674Z" fill="#F5F5F5"/>
<path d="M5.41588 7.29978L5.49877 7.54837L5.7608 7.5504C5.79471 7.55067 5.80881 7.59395 5.7815 7.61411L5.57072 7.76978L5.64974 8.01962C5.65998 8.05196 5.62318 8.07872 5.59553 8.05899L5.38232 7.90661L5.16912 8.05899C5.14154 8.07876 5.10471 8.05196 5.1149 8.01962L5.19392 7.76978L4.98314 7.61411C4.95588 7.59395 4.9699 7.55067 5.00385 7.5504L5.26588 7.54837L5.34877 7.29978C5.35963 7.26759 5.40514 7.26759 5.41588 7.29978Z" fill="#F5F5F5"/>
<path d="M5.41588 9.22263L5.49877 9.47122L5.7608 9.47325C5.79471 9.47353 5.80881 9.51681 5.7815 9.53696L5.57072 9.69263L5.64974 9.94247C5.65998 9.97481 5.62318 10.0016 5.59553 9.98185L5.38232 9.82946L5.16912 9.98185C5.14154 10.0016 5.10471 9.97481 5.1149 9.94247L5.19392 9.69263L4.98314 9.53696C4.95588 9.51681 4.9699 9.47349 5.00385 9.47325L5.26588 9.47122L5.34877 9.22263C5.35963 9.19044 5.40514 9.19044 5.41588 9.22263Z" fill="#F5F5F5"/>
<path d="M6.42369 1.79489L6.50658 2.04349L6.76861 2.04552C6.80252 2.04579 6.81662 2.08907 6.78932 2.10923L6.57854 2.26489L6.65756 2.51474C6.66779 2.54708 6.631 2.57384 6.60334 2.55411L6.39014 2.40173L6.17693 2.55411C6.14936 2.57388 6.11252 2.54708 6.12272 2.51474L6.20174 2.26489L5.99096 2.10923C5.96369 2.08907 5.97771 2.04579 6.01162 2.04552L6.27365 2.04349L6.35654 1.79489C6.36744 1.76271 6.41295 1.76271 6.42369 1.79489Z" fill="#F5F5F5"/>
<path d="M6.42369 4.09494L6.50658 4.34354L6.76861 4.34557C6.80252 4.34584 6.81662 4.38912 6.78932 4.40928L6.57854 4.56494L6.65756 4.81479C6.66779 4.84713 6.631 4.87389 6.60334 4.85416L6.39014 4.70178L6.17693 4.85416C6.14936 4.87393 6.11252 4.84713 6.12272 4.81479L6.20174 4.56494L5.99096 4.40928C5.96369 4.38912 5.97771 4.34584 6.01162 4.34557L6.27365 4.34354L6.35654 4.09494C6.36744 4.06275 6.41295 4.06275 6.42369 4.09494Z" fill="#F5F5F5"/>
<path d="M6.42369 6.27997L6.50658 6.52856L6.76861 6.5306C6.80252 6.53087 6.81662 6.57415 6.78932 6.59431L6.57854 6.74997L6.65756 6.99981C6.66779 7.03216 6.631 7.05892 6.60334 7.03919L6.39014 6.88681L6.17693 7.03919C6.14936 7.05896 6.11252 7.03216 6.12272 6.99981L6.20174 6.74997L5.99096 6.59431C5.96369 6.57415 5.97771 6.53087 6.01162 6.5306L6.27365 6.52856L6.35654 6.27997C6.36744 6.24782 6.41295 6.24782 6.42369 6.27997Z" fill="#F5F5F5"/>
<path d="M6.42369 8.24243L6.50658 8.49103L6.76861 8.49306C6.80252 8.49333 6.81662 8.53661 6.78932 8.55677L6.57854 8.71243L6.65756 8.96228C6.66779 8.99462 6.631 9.02138 6.60334 9.00165L6.39014 8.84927L6.17693 9.00165C6.14936 9.02142 6.11252 8.99462 6.12272 8.96228L6.20174 8.71243L5.99096 8.55677C5.96369 8.53661 5.97771 8.49333 6.01162 8.49306L6.27365 8.49103L6.35654 8.24243C6.36744 8.21021 6.41295 8.21021 6.42369 8.24243Z" fill="#F5F5F5"/>
<path d="M7.4315 0.812959L7.51439 1.06155L7.77642 1.06358C7.81033 1.06386 7.82443 1.10714 7.79713 1.12729L7.58635 1.28296L7.66537 1.5328C7.6756 1.56515 7.63881 1.5919 7.61115 1.57218L7.39795 1.41979L7.18474 1.57218C7.15717 1.59194 7.12033 1.56515 7.13053 1.5328L7.20955 1.28296L6.99877 1.12729C6.9715 1.10714 6.98553 1.06386 7.01947 1.06358L7.2815 1.06155L7.36439 0.812959C7.37525 0.780771 7.42076 0.780771 7.4315 0.812959Z" fill="#F5F5F5"/>
<path d="M7.4315 2.88672L7.51439 3.13531L7.77642 3.13734C7.81033 3.13762 7.82443 3.1809 7.79713 3.20105L7.58635 3.35672L7.66537 3.60656C7.6756 3.63891 7.63881 3.66566 7.61115 3.64594L7.39795 3.49355L7.18474 3.64594C7.15717 3.6657 7.12033 3.63891 7.13053 3.60656L7.20955 3.35672L6.99877 3.20105C6.9715 3.1809 6.98553 3.13762 7.01947 3.13734L7.2815 3.13531L7.36439 2.88672C7.37525 2.85449 7.42076 2.85449 7.4315 2.88672Z" fill="#F5F5F5"/>
<path d="M7.4315 5.18674L7.51439 5.43533L7.77642 5.43736C7.81033 5.43764 7.82443 5.48092 7.79713 5.50111L7.58635 5.65678L7.66537 5.90662C7.6756 5.93896 7.63881 5.96572 7.61115 5.946L7.39795 5.79361L7.18474 5.946C7.15717 5.96576 7.12033 5.93896 7.13053 5.90662L7.20955 5.65678L6.99877 5.50111C6.9715 5.48096 6.98553 5.43764 7.01947 5.43736L7.2815 5.43533L7.36439 5.18674C7.37525 5.15455 7.42076 5.15455 7.4315 5.18674Z" fill="#F5F5F5"/>
<path d="M7.4315 7.29978L7.51439 7.54837L7.77642 7.5504C7.81033 7.55067 7.82443 7.59395 7.79713 7.61411L7.58635 7.76978L7.66537 8.01962C7.6756 8.05196 7.63881 8.07872 7.61115 8.05899L7.39795 7.90661L7.18474 8.05899C7.15717 8.07876 7.12033 8.05196 7.13053 8.01962L7.20955 7.76978L6.99877 7.61411C6.9715 7.59395 6.98553 7.55067 7.01947 7.5504L7.2815 7.54837L7.36439 7.29978C7.37525 7.26759 7.42076 7.26759 7.4315 7.29978Z" fill="#F5F5F5"/>
<path d="M7.4315 9.22263L7.51439 9.47122L7.77642 9.47325C7.81033 9.47353 7.82443 9.51681 7.79713 9.53696L7.58635 9.69263L7.66537 9.94247C7.6756 9.97481 7.63881 10.0016 7.61115 9.98185L7.39795 9.82946L7.18474 9.98185C7.15717 10.0016 7.12033 9.97481 7.13053 9.94247L7.20955 9.69263L6.99877 9.53696C6.9715 9.51681 6.98553 9.47349 7.01947 9.47325L7.2815 9.47122L7.36439 9.22263C7.37525 9.19044 7.42076 9.19044 7.4315 9.22263Z" fill="#F5F5F5"/>
<path d="M8.44322 1.79489L8.52611 2.04349L8.78814 2.04552C8.82205 2.04579 8.83615 2.08907 8.80885 2.10923L8.59806 2.26489L8.67709 2.51474C8.68732 2.54708 8.65053 2.57384 8.62287 2.55411L8.40967 2.40173L8.19646 2.55411C8.16888 2.57388 8.13205 2.54708 8.14224 2.51474L8.22127 2.26489L8.01049 2.10923C7.98322 2.08907 7.99724 2.04579 8.03119 2.04552L8.29322 2.04349L8.37611 1.79489C8.38693 1.76271 8.43248 1.76271 8.44322 1.79489Z" fill="#F5F5F5"/>
<path d="M8.44322 4.09494L8.52611 4.34354L8.78814 4.34557C8.82205 4.34584 8.83615 4.38912 8.80885 4.40928L8.59806 4.56494L8.67709 4.81479C8.68732 4.84713 8.65053 4.87389 8.62287 4.85416L8.40967 4.70178L8.19646 4.85416C8.16888 4.87393 8.13205 4.84713 8.14224 4.81479L8.22127 4.56494L8.01049 4.40928C7.98322 4.38912 7.99724 4.34584 8.03119 4.34557L8.29322 4.34354L8.37611 4.09494C8.38693 4.06275 8.43248 4.06275 8.44322 4.09494Z" fill="#F5F5F5"/>
<path d="M8.44322 6.27997L8.52611 6.52856L8.78814 6.5306C8.82205 6.53087 8.83615 6.57415 8.80885 6.59431L8.59806 6.74997L8.67709 6.99981C8.68732 7.03216 8.65053 7.05892 8.62287 7.03919L8.40967 6.88681L8.19646 7.03919C8.16888 7.05896 8.13205 7.03216 8.14224 6.99981L8.22127 6.74997L8.01049 6.59431C7.98322 6.57415 7.99724 6.53087 8.03119 6.5306L8.29322 6.52856L8.37611 6.27997C8.38693 6.24782 8.43248 6.24782 8.44322 6.27997Z" fill="#F5F5F5"/>
<path d="M8.44322 8.24243L8.52611 8.49103L8.78814 8.49306C8.82205 8.49333 8.83615 8.53661 8.80885 8.55677L8.59806 8.71243L8.67709 8.96228C8.68732 8.99462 8.65053 9.02138 8.62287 9.00165L8.40967 8.84927L8.19646 9.00165C8.16888 9.02142 8.13205 8.99462 8.14224 8.96228L8.22127 8.71243L8.01049 8.55677C7.98322 8.53661 7.99724 8.49333 8.03119 8.49306L8.29322 8.49103L8.37611 8.24243C8.38693 8.21021 8.43248 8.21021 8.44322 8.24243Z" fill="#F5F5F5"/>
<path d="M9.45103 0.812959L9.53392 1.06155L9.79596 1.06358C9.82986 1.06386 9.84396 1.10714 9.81666 1.12729L9.60588 1.28296L9.6849 1.5328C9.69513 1.56515 9.65834 1.5919 9.63068 1.57218L9.41748 1.41979L9.20428 1.57218C9.1767 1.59194 9.13986 1.56515 9.15006 1.5328L9.22908 1.28296L9.0183 1.12729C8.99103 1.10714 9.00506 1.06386 9.039 1.06358L9.30103 1.06155L9.38392 0.812959C9.39474 0.780771 9.44029 0.780771 9.45103 0.812959Z" fill="#F5F5F5"/>
<path d="M9.45103 2.88672L9.53392 3.13531L9.79596 3.13734C9.82986 3.13762 9.84396 3.1809 9.81666 3.20105L9.60588 3.35672L9.6849 3.60656C9.69513 3.63891 9.65834 3.66566 9.63068 3.64594L9.41748 3.49355L9.20428 3.64594C9.1767 3.6657 9.13986 3.63891 9.15006 3.60656L9.22908 3.35672L9.0183 3.20105C8.99103 3.1809 9.00506 3.13762 9.039 3.13734L9.30103 3.13531L9.38392 2.88672C9.39474 2.85449 9.44029 2.85449 9.45103 2.88672Z" fill="#F5F5F5"/>
<path d="M9.45103 5.18674L9.53392 5.43533L9.79596 5.43736C9.82986 5.43764 9.84396 5.48092 9.81666 5.50111L9.60588 5.65678L9.6849 5.90662C9.69513 5.93896 9.65834 5.96572 9.63068 5.946L9.41748 5.79361L9.20428 5.946C9.1767 5.96576 9.13986 5.93896 9.15006 5.90662L9.22908 5.65678L9.0183 5.50111C8.99103 5.48096 9.00506 5.43764 9.039 5.43736L9.30103 5.43533L9.38392 5.18674C9.39474 5.15455 9.44029 5.15455 9.45103 5.18674Z" fill="#F5F5F5"/>
<path d="M9.45103 7.29978L9.53392 7.54837L9.79596 7.5504C9.82986 7.55067 9.84396 7.59395 9.81666 7.61411L9.60588 7.76978L9.6849 8.01962C9.69513 8.05196 9.65834 8.07872 9.63068 8.05899L9.41748 7.90661L9.20428 8.05899C9.1767 8.07876 9.13986 8.05196 9.15006 8.01962L9.22908 7.76978L9.0183 7.61411C8.99103 7.59395 9.00506 7.55067 9.039 7.5504L9.30103 7.54837L9.38392 7.29978C9.39474 7.26759 9.44029 7.26759 9.45103 7.29978Z" fill="#F5F5F5"/>
<path d="M9.45103 9.22263L9.53392 9.47122L9.79596 9.47325C9.82986 9.47353 9.84396 9.51681 9.81666 9.53696L9.60588 9.69263L9.6849 9.94247C9.69513 9.97481 9.65834 10.0016 9.63068 9.98185L9.41748 9.82946L9.20428 9.98185C9.1767 10.0016 9.13986 9.97481 9.15006 9.94247L9.22908 9.69263L9.0183 9.53696C8.99103 9.51681 9.00506 9.47349 9.039 9.47325L9.30103 9.47122L9.38392 9.22263C9.39474 9.19044 9.44029 9.19044 9.45103 9.22263Z" fill="#F5F5F5"/>
</g>
<defs>
<clipPath id="clip0_1101_206414">
<rect width="20" height="20" rx="4" fill="white"/>
</clipPath>
</defs>
</svg>
